<?xml version="1.0" encoding="UTF-8" standalone="no"?>
<svg width="400px" height="90px" viewBox="0 0 400 90" version="1.1" xmlns="http://www.w3.org/2000/svg" xmlns:xlink="http://www.w3.org/1999/xlink">
    <!-- Generator: Sketch 40.2 (33826) - http://www.bohemiancoding.com/sketch -->
    <title>Artboard</title>
    <desc>Created with Sketch.</desc>
    <defs>
        <polyline id="path-1" points="25.232233 53.8033009 38.767767 53.8033009 38.767767 67.3388348"></polyline>
        <mask id="mask-2" maskContentUnits="userSpaceOnUse" maskUnits="objectBoundingBox" x="0" y="0" width="13.5355339" height="13.5355339" fill="white">
            <use xlink:href="#path-1"></use>
        </mask>
        <polyline id="path-3" points="145.232233 53.8033009 158.767767 53.8033009 158.767767 67.3388348"></polyline>
        <mask id="mask-4" maskContentUnits="userSpaceOnUse" maskUnits="objectBoundingBox" x="0" y="0" width="13.5355339" height="13.5355339" fill="white">
            <use xlink:href="#path-3"></use>
        </mask>
        <polyline id="path-5" points="265.232233 53.8033009 278.767767 53.8033009 278.767767 67.3388348"></polyline>
        <mask id="mask-6" maskContentUnits="userSpaceOnUse" maskUnits="objectBoundingBox" x="0" y="0" width="13.5355339" height="13.5355339" fill="white">
            <use xlink:href="#path-5"></use>
        </mask>
        <polyline id="path-7" points="201.232233 53.8033009 214.767767 53.8033009 214.767767 67.3388348"></polyline>
        <mask id="mask-8" maskContentUnits="userSpaceOnUse" maskUnits="objectBoundingBox" x="0" y="0" width="13.5355339" height="13.5355339" fill="white">
            <use xlink:href="#path-7"></use>
        </mask>
        <polyline id="path-9" points="81.232233 53.8033009 94.767767 53.8033009 94.767767 67.3388348"></polyline>
        <mask id="mask-10" maskContentUnits="userSpaceOnUse" maskUnits="objectBoundingBox" x="0" y="0" width="13.5355339" height="13.5355339" fill="white">
            <use xlink:href="#path-9"></use>
        </mask>
        <polyline id="path-11" points="321.232233 53.8033009 334.767767 53.8033009 334.767767 67.3388348"></polyline>
        <mask id="mask-12" maskContentUnits="userSpaceOnUse" maskUnits="objectBoundingBox" x="0" y="0" width="13.5355339" height="13.5355339" fill="white">
            <use xlink:href="#path-11"></use>
        </mask>
    </defs>
    <g id="Page-1" stroke="none" stroke-width="1" fill="none" fill-rule="evenodd">
        <g id="Artboard" stroke="#FFFFFF" stroke-width="2">
            <use id="Rectangle" mask="url(#mask-2)" transform="translate(32.000000, 60.571068) rotate(-135.000000) translate(-32.000000, -60.571068) " xlink:href="#path-1"></use>
            <use id="Rectangle-Copy" mask="url(#mask-4)" transform="translate(152.000000, 60.571068) rotate(-135.000000) translate(-152.000000, -60.571068) " xlink:href="#path-3"></use>
            <use id="Rectangle-Copy-2" mask="url(#mask-6)" transform="translate(272.000000, 60.571068) rotate(-135.000000) translate(-272.000000, -60.571068) " xlink:href="#path-5"></use>
            <use id="Rectangle-Copy-3" mask="url(#mask-8)" transform="translate(208.000000, 60.571068) rotate(-315.000000) translate(-208.000000, -60.571068) " xlink:href="#path-7"></use>
            <use id="Rectangle-Copy-5" mask="url(#mask-10)" transform="translate(88.000000, 60.571068) rotate(-315.000000) translate(-88.000000, -60.571068) " xlink:href="#path-9"></use>
            <use id="Rectangle-Copy-4" mask="url(#mask-12)" transform="translate(328.000000, 60.571068) rotate(-315.000000) translate(-328.000000, -60.571068) " xlink:href="#path-11"></use>
        </g>
    </g>
</svg>