<?xml version="1.0" encoding="utf-8"?>
<!-- Generator: Adobe Illustrator 19.1.0, SVG Export Plug-In . SVG Version: 6.00 Build 0)  -->
<svg version="1.0" id="Layer_1" xmlns="http://www.w3.org/2000/svg" xmlns:xlink="http://www.w3.org/1999/xlink" x="0px" y="0px"
	 viewBox="0 0 25 25" enable-background="new 0 0 25 25" xml:space="preserve">
<g>
	<path d="M12.5,0C5.6,0,0,5.6,0,12.5c0,5.1,3.1,9.5,7.5,11.4c0-0.9,0-1.9,0.2-2.9c0.2-1,1.6-6.8,1.6-6.8s-0.4-0.8-0.4-2
		c0-1.9,1.1-3.2,2.4-3.2c1.1,0,1.7,0.9,1.7,1.9c0,1.1-0.7,2.9-1.1,4.4c-0.3,1.3,0.7,2.4,2,2.4c2.4,0,4-3,4-6.6
		c0-2.7-1.8-4.8-5.2-4.8c-3.8,0-6.2,2.8-6.2,6c0,1.1,0.3,1.9,0.8,2.5c0.2,0.3,0.3,0.4,0.2,0.7c-0.1,0.2-0.2,0.8-0.3,1
		c-0.1,0.3-0.3,0.4-0.6,0.3C4.9,16.1,4,14.2,4,12C4,8.5,7,4.2,13,4.2c4.8,0,7.9,3.5,7.9,7.2c0,4.9-2.7,8.6-6.7,8.6
		c-1.3,0-2.6-0.7-3.1-1.6c0,0-0.7,2.9-0.9,3.4c-0.3,1-0.8,1.9-1.3,2.7c1.1,0.3,2.3,0.5,3.5,0.5C19.4,25,25,19.4,25,12.5
		C25,5.6,19.4,0,12.5,0z"/>
</g>
</svg>
