<svg id="Layer_1" data-name="Layer 1" xmlns="http://www.w3.org/2000/svg" viewBox="0 0 25 25"><title>Icon_Insta</title><path d="M18.35,8.08a2.48,2.48,0,0,0-1.42-1.42,4.15,4.15,0,0,0-1.39-.26c-.79,0-1,0-3,0s-2.24,0-3,0a4.15,4.15,0,0,0-1.39.26A2.48,2.48,0,0,0,6.65,8.08,4.15,4.15,0,0,0,6.4,9.47c0,.79,0,1,0,3s0,2.24,0,3a4.15,4.15,0,0,0,.26,1.39,2.48,2.48,0,0,0,1.42,1.42,4.15,4.15,0,0,0,1.39.26c.79,0,1,0,3,0s2.24,0,3,0a4.15,4.15,0,0,0,1.39-.26,2.48,2.48,0,0,0,1.42-1.42,4.15,4.15,0,0,0,.26-1.39c0-.79,0-1,0-3s0-2.24,0-3A4.15,4.15,0,0,0,18.35,8.08ZM12.5,16.35a3.85,3.85,0,1,1,3.85-3.85A3.85,3.85,0,0,1,12.5,16.35Zm4-7a.9.9,0,1,1,.9-.9A.9.9,0,0,1,16.5,9.4Z"/><circle cx="12.5" cy="12.5" r="2.5"/><path d="M12.5,0A12.5,12.5,0,1,0,25,12.5,12.5,12.5,0,0,0,12.5,0ZM20,15.59a5.5,5.5,0,0,1-.35,1.82,3.83,3.83,0,0,1-2.19,2.19,5.5,5.5,0,0,1-1.82.35c-.8,0-1.06,0-3.09,0s-2.29,0-3.09,0a5.5,5.5,0,0,1-1.82-.35,3.83,3.83,0,0,1-2.19-2.19A5.5,5.5,0,0,1,5,15.59c0-.8,0-1.06,0-3.09s0-2.29,0-3.09a5.5,5.5,0,0,1,.35-1.82A3.83,3.83,0,0,1,7.59,5.39,5.5,5.5,0,0,1,9.41,5c.8,0,1.06,0,3.09,0s2.29,0,3.09,0a5.5,5.5,0,0,1,1.82.35,3.83,3.83,0,0,1,2.19,2.19A5.5,5.5,0,0,1,20,9.41c0,.8,0,1.06,0,3.09S20,14.79,20,15.59Z"/></svg>