<?xml version="1.0" encoding="utf-8"?>
<!-- Generator: Adobe Illustrator 19.1.0, SVG Export Plug-In . SVG Version: 6.00 Build 0)  -->
<svg version="1.0" id="Layer_1" xmlns="http://www.w3.org/2000/svg" xmlns:xlink="http://www.w3.org/1999/xlink" x="0px" y="0px"
	 viewBox="0 0 25 25" enable-background="new 0 0 25 25" xml:space="preserve">
<g>
	<path d="M12.2,0.7C5.7,0.7,0.5,5.9,0.5,12.4c0,6.5,5.2,11.7,11.7,11.7c6.4,0,11.7-5.2,11.7-11.7C23.8,5.9,18.6,0.7,12.2,0.7
		L12.2,0.7z M18.3,10.3c0,0.1,0,0.2,0,0.4c0,3.6-2.8,7.9-7.8,7.9c-1.6,0-3-0.5-4.2-1.2c0.2,0,0.4,0,0.7,0c1.3,0,2.5-0.4,3.4-1.2
		c-1.2,0-2.2-0.8-2.6-1.9c0.2,0,0.3,0,0.5,0c0.3,0,0.5,0,0.7-0.1c-1.3-0.3-2.2-1.4-2.2-2.7v0c0.4,0.2,0.8,0.3,1.2,0.3
		c-0.7-0.5-1.2-1.3-1.2-2.3c0-0.5,0.1-1,0.4-1.4c1.4,1.7,3.4,2.8,5.7,2.9c0-0.2-0.1-0.4-0.1-0.6c0-1.5,1.2-2.8,2.7-2.8
		c0.8,0,1.5,0.3,2,0.9c0.6-0.1,1.2-0.4,1.7-0.7c-0.2,0.6-0.6,1.2-1.2,1.5c0.6-0.1,1.1-0.2,1.6-0.4C19.3,9.4,18.8,9.9,18.3,10.3
		L18.3,10.3z M18.3,10.3"/>
</g>
</svg>
