<?xml version="1.0" encoding="utf-8"?>
<!-- Generator: Adobe Illustrator 19.1.0, SVG Export Plug-In . SVG Version: 6.00 Build 0)  -->
<svg version="1.0" id="Layer_1" xmlns="http://www.w3.org/2000/svg" xmlns:xlink="http://www.w3.org/1999/xlink" x="0px" y="0px"
	 viewBox="0 0 25 25" enable-background="new 0 0 25 25" xml:space="preserve">
<g>
	<path d="M12.5,0C5.6,0,0,5.6,0,12.5C0,19.4,5.6,25,12.5,25C19.4,25,25,19.4,25,12.5C25,5.6,19.4,0,12.5,0L12.5,0z M17.3,6.4l-1.7,0
		c-1.4,0-1.6,0.6-1.6,1.6V10h3.2l0,3.3h-3.2v8.4h-3.4v-8.4H7.7V10h2.8V7.6c0-2.8,1.7-4.3,4.2-4.3l2.5,0L17.3,6.4L17.3,6.4z
		 M17.3,6.4"/>
</g>
</svg>
